<svg width="14" height="12" viewBox="0 0 14 12" fill="none" xmlns="http://www.w3.org/2000/svg">
<path d="M11.6065 6.5396L0.644204 6.5396C0.468299 6.52396 0.304514 6.44134 0.185186 6.30806C0.0658569 6.17479 -0.000341471 6.00053 -0.000341471 5.81971C-0.000341471 5.63889 0.0658569 5.46464 0.185186 5.33136C0.304514 5.19808 0.468299 5.11546 0.644204 5.09982L11.6065 5.09982L7.8792 1.28357C7.80219 1.21953 7.73923 1.13958 7.69443 1.04894C7.64963 0.958304 7.624 0.859008 7.6192 0.757537C7.61441 0.656065 7.63056 0.554698 7.6666 0.460051C7.70264 0.365404 7.75777 0.279604 7.82838 0.208249C7.89899 0.136895 7.9835 0.0815899 8.07639 0.0459436C8.16928 0.0102973 8.26847 -0.00488917 8.36748 0.00137513C8.46649 0.00763942 8.5631 0.0352137 8.651 0.0822986C8.7389 0.129383 8.81612 0.194921 8.87762 0.274634L13.8 5.31479C13.9283 5.4497 14 5.63054 14 5.81881C14 6.00708 13.9283 6.18791 13.8 6.32282L8.87762 11.3639C8.81632 11.4441 8.73916 11.5101 8.65121 11.5576C8.56326 11.6051 8.4665 11.633 8.36727 11.6395C8.26804 11.646 8.16859 11.631 8.07543 11.5954C7.98227 11.5598 7.8975 11.5045 7.8267 11.433C7.75589 11.3615 7.70063 11.2755 7.66455 11.1806C7.62848 11.0857 7.61239 10.9841 7.61735 10.8824C7.6223 10.7807 7.64819 10.6812 7.69332 10.5904C7.73845 10.4997 7.80179 10.4198 7.8792 10.3559L11.6136 6.5396H11.6065Z" fill="#606060"/>
</svg>
