<svg width="14" height="12" viewBox="0 0 14 12" fill="none" xmlns="http://www.w3.org/2000/svg">
<path d="M2.39349 6.5396L13.3558 6.5396C13.5317 6.52396 13.6955 6.44134 13.8148 6.30806C13.9341 6.17479 14.0003 6.00053 14.0003 5.81971C14.0003 5.63889 13.9341 5.46464 13.8148 5.33136C13.6955 5.19808 13.5317 5.11546 13.3558 5.09982L2.39349 5.09982L6.1208 1.28357C6.19781 1.21953 6.26077 1.13958 6.30557 1.04894C6.35037 0.958304 6.376 0.859008 6.3808 0.757537C6.38559 0.656065 6.36944 0.554698 6.3334 0.460051C6.29736 0.365404 6.24223 0.279604 6.17162 0.208249C6.10101 0.136895 6.0165 0.0815899 5.92361 0.0459436C5.83072 0.0102973 5.73153 -0.00488917 5.63252 0.00137513C5.53351 0.00763942 5.4369 0.0352137 5.349 0.0822986C5.2611 0.129383 5.18388 0.194921 5.12238 0.274634L0.199976 5.31479C0.0717494 5.4497 0 5.63054 0 5.81881C0 6.00708 0.0717494 6.18791 0.199976 6.32282L5.12238 11.3639C5.18368 11.4441 5.26084 11.5101 5.34879 11.5576C5.43674 11.6051 5.5335 11.633 5.63273 11.6395C5.73196 11.646 5.83141 11.631 5.92457 11.5954C6.01773 11.5598 6.1025 11.5045 6.1733 11.433C6.24411 11.3615 6.29937 11.2755 6.33545 11.1806C6.37152 11.0857 6.38761 10.9841 6.38265 10.8824C6.3777 10.7807 6.35181 10.6812 6.30668 10.5904C6.26155 10.4997 6.19821 10.4198 6.1208 10.3559L2.38644 6.5396H2.39349Z" fill="#606060"/>
</svg>
